<svg xmlns="http://www.w3.org/2000/svg" width="225" height="226" fill="none" viewBox="0 0 225 226">
  <g class="Group">
    <g class="Group_2">
      <g class="Group_3">
        <g class="Group_4">
          <g class="Group_5">
            <g class="Group_6">
              <path fill="#fff" d="M133.59 195.235H74.376c-10.156 0-18.465-8.426-18.465-18.725v-53.058c0-10.299 8.309-18.726 18.465-18.726h59.215c10.156 0 18.464 8.427 18.464 18.726v53.058c0 10.298-8.309 18.725-18.465 18.725z" class="Vector"/>
            </g>
          </g>
        </g>
      </g>
      <g class="Group_7">
        <g class="Group_8">
          <g class="Group_9">
            <g class="Group_10">
              <path fill="#00227B" d="M133.59 104.726c10.156 0 18.465 8.426 18.465 18.725v53.058c0 10.299-8.309 18.726-18.465 18.726H74.376c-10.156 0-18.465-8.427-18.465-18.726v-53.058c0-10.299 8.31-18.725 18.465-18.725h59.214zm0-2.96H74.376c-2.876 0-5.672.577-8.31 1.713a21.386 21.386 0 00-6.794 4.655 21.735 21.735 0 00-4.59 6.889 21.704 21.704 0 00-1.69 8.428v53.058a21.7 21.7 0 001.69 8.428 21.726 21.726 0 004.59 6.89 21.409 21.409 0 006.794 4.654 20.879 20.879 0 008.31 1.713h59.215c2.876 0 5.672-.576 8.31-1.713a21.382 21.382 0 006.794-4.654 21.752 21.752 0 004.59-6.89 21.714 21.714 0 001.689-8.428v-53.058c0-2.916-.569-5.752-1.689-8.428a21.708 21.708 0 00-4.59-6.889 21.396 21.396 0 00-6.794-4.655 20.898 20.898 0 00-8.311-1.713z" class="Vector_2"/>
            </g>
          </g>
        </g>
      </g>
      <g class="Group_11">
        <g class="Group_12">
          <g class="Group_13">
            <g class="Group_14">
              <path fill="#fff" d="M150.731 162.427c-9.22 1.096-18.409 1.366-18.409 1.366s-4.68-23.665-5.977-42.222c-.956-13.75-.057-24.692 5.977-21.124 2.776 1.643 5.973 4.735 9.307 8.658 12.504 14.719 26.87 41.15 27.658 46.634.509 3.527-9.037 5.55-18.556 6.688z" class="Vector_3"/>
            </g>
          </g>
        </g>
      </g>
      <g class="Group_15">
        <g class="Group_16">
          <g class="Group_17">
            <g class="Group_18">
              <path fill="#00227B" d="M131.088 165.37l-.252-1.273c-.029-.146-2.891-14.687-4.743-29.743-1.092-8.877-1.626-16.207-1.587-21.784.052-7.618 1.143-11.938 3.432-13.597 1.005-.728 2.714-1.293 5.149.148 8.027 4.749 18.215 19.878 23.573 28.473 3.574 5.734 6.996 11.761 9.635 16.97 1.86 3.671 4.149 8.55 4.495 10.953.101.697.033 1.755-.859 2.833-1.29 1.557-3.97 2.777-8.433 3.836-3.273.776-7.479 1.444-12.5 1.985-8.502.916-16.551 1.159-16.631 1.161l-1.279.038zm-.856-64.065c-.293 0-.446.112-.53.172-.99.717-3.957 5.177-.6 32.48 1.521 12.366 3.728 24.387 4.462 28.251 2.589-.105 8.731-.409 15.13-1.099 14.857-1.602 18.176-3.848 18.914-4.738.204-.246.187-.36.18-.409-.431-2.99-6.036-14.442-13.692-26.724-8.867-14.223-17.08-24.232-22.537-27.46-.619-.367-1.04-.473-1.327-.473z" class="Vector_4"/>
            </g>
          </g>
        </g>
      </g>
      <g class="Group_19">
        <g class="Group_20">
          <g class="Group_21">
            <g class="Group_22">
              <path fill="#fff" d="M85.41 99.575l-1.867 14.315-1.061 8.139-2.264 17.377s-4.138 2.854-11.02 5.115a54.211 54.211 0 01-8.803 2.1 51.298 51.298 0 01-18.216-.469c-17.22-3.577-27.556-16.55-32.03-23.073C1.5 110.49.168 107.086 2.572 101.786c1.836-4.062 4.98-4.803 4.98-4.803s-.155-3.246 2.378-4.4c7.593-3.458 17.374 5.776 17.374 5.776s.364-9.93 5.605-7.638c3.61 1.58 4.43 12.393 4.43 12.393s4.846 6.315 12.545 7.153c4.024.438 9.592-.746 15.121-2.465.064-.019.13-.038.194-.061 2.947-.923 5.874-1.993 8.555-3.051 1.203-.473 2.355-.946 3.436-1.399 4.831-2.032 8.219-3.716 8.219-3.716z" class="Vector_5"/>
            </g>
          </g>
        </g>
      </g>
      <g class="Group_23">
        <path fill="#00227B" d="M10.146 123.079c4.478 6.521 14.812 19.496 32.032 23.073 10.786 2.237 20.238.593 27.02-1.633 6.883-2.259 11.02-5.115 11.02-5.115l.303-13.712s-4.69-4.584-9.057-2.715c-5.249 2.245-3.567 9.877-11.063 12-20.838 5.901-37.765-4.88-43.212-9.614-7.557-6.565-9.528-10.701-10.591-12.407-2.201-3.531-3.9-6.306-4.859-8.79-.976 4.203 1.109 8.285 8.407 18.913z" class="Vector_6" opacity=".35"/>
      </g>
      <g class="Group_24">
        <g class="Group_25">
          <g class="Group_26">
            <g class="Group_27">
              <path fill="#00227B" d="M52.57 148.755c-3.596 0-7.177-.366-10.696-1.097-7.74-1.608-14.963-5.227-21.465-10.76-4.184-3.56-8.056-7.914-11.507-12.939-4.21-6.134-6.888-10.347-8.108-13.731-1.17-3.244-1.054-5.875.398-9.086 1.43-3.16 3.593-4.614 4.9-5.238.213-1.625 1.044-3.733 3.217-4.723 6.174-2.812 13.299 1.54 16.825 4.22.035-.182.073-.368.114-.557.584-2.659 1.593-4.463 2.998-5.362.864-.553 2.304-1.03 4.268-.17 1.992.872 3.445 3.442 4.444 7.856a45.54 45.54 0 01.85 5.324c1.072 1.231 5.263 5.595 11.24 6.245 10.912 1.186 34.456-10.427 34.693-10.544.502-.25 1.099-.199 1.552.133.454.33.692.888.619 1.45l-5.188 39.829a1.537 1.537 0 01-.65 1.07c-.174.12-4.335 2.964-11.254 5.257a55.639 55.639 0 01-12.392 2.6c-1.62.149-3.24.223-4.859.223zM7.903 98.477c-.196.054-2.512.758-3.955 3.948-1.944 4.296-1.466 6.8 7.442 19.775 8.376 12.198 19.126 19.958 31.09 22.443 10.902 2.264 20.371.359 26.395-1.636 5.107-1.693 8.628-3.711 9.93-4.517l4.734-36.33a174.957 174.957 0 01-11.056 4.669c-10.103 3.839-17.761 5.51-22.759 4.967-8.245-.895-13.368-7.458-13.582-7.737a1.55 1.55 0 01-.316-.827 42.37 42.37 0 00-.834-5.41c-1.057-4.65-2.32-5.529-2.683-5.687-.905-.396-1.297-.147-1.444-.053-1.275.814-1.965 4.195-2.049 6.335a1.54 1.54 0 01-.938 1.362 1.501 1.501 0 01-1.612-.296c-.09-.084-9.135-8.494-15.715-5.496-1.516.691-1.489 2.775-1.485 2.925.045.759-.43 1.408-1.163 1.565z" class="Vector_7"/>
            </g>
          </g>
        </g>
      </g>
      <g class="Group_28">
        <g class="Group_29">
          <g class="Group_30">
            <g class="Group_31">
              <path fill="#00227B" d="M28.552 98.358c.035.432-.028.825-.113 1.166-.043.176-.095.328-.148.484a7.548 7.548 0 01-.172.428c-.24.547-.498.999-.744 1.438-.247.436-.485.852-.706 1.268l-.161.313c-.051.104-.105.208-.155.314l-.143.318-.137.321-.124.327-.115.331c-.04.111-.068.225-.104.337-.036.112-.064.227-.094.342-.115.46-.214.933-.271 1.421-.063.487-.103.987-.115 1.495-.012.256-.007.511-.01.772-.004.13.007.258.008.389.002.132.006.263.006.395v.01a.184.184 0 01-.184.185.18.18 0 01-.162-.101 10.53 10.53 0 01-1.035-3.104 10.083 10.083 0 01.022-3.415l.084-.426c.033-.141.069-.28.103-.421.037-.14.078-.277.116-.416.04-.138.087-.273.132-.409.182-.541.408-1.055.64-1.537.233-.482.48-.936.68-1.33.21-.399.33-.723.4-.898l.147-.366c.255-.635.97-.94 1.596-.682.442.185.722.6.76 1.05z" class="Vector_8"/>
            </g>
          </g>
        </g>
      </g>
      <g class="Group_32">
        <g class="Group_33">
          <g class="Group_34">
            <g class="Group_35">
              <path fill="#00227B" d="M40.512 147.208c-.383 0-.752-.215-.934-.586a1.063 1.063 0 01.468-1.417c4.206-2.122 7.08-8.744 8.309-19.15.953-8.064.556-15.564.552-15.639a1.052 1.052 0 01.983-1.114 1.05 1.05 0 011.099.996c.004.076.41 7.736-.561 15.98-.575 4.879-1.513 9.019-2.789 12.304-1.651 4.252-3.893 7.117-6.664 8.515a1.03 1.03 0 01-.463.111z" class="Vector_9"/>
            </g>
          </g>
        </g>
      </g>
      <g class="Group_36" opacity=".35">
        <g class="Group_37" opacity=".35">
          <g class="Group_38" opacity=".35">
            <g class="Group_39" opacity=".35">
              <path fill="#00227B" d="M175.04 215.246v-.211c-1.667.071 0 .211 0 .211z" class="Vector_10" opacity=".35"/>
            </g>
          </g>
        </g>
      </g>
      <g class="Group_40">
        <g class="Group_41">
          <g class="Group_42">
            <g class="Group_43">
              <g class="Group_44">
                <path fill="#fff" d="M154.001 189.281H53.86s.61-17.527 6.534-42.661c2.374-10.08 5.605-21.384 9.993-33.273a273.94 273.94 0 013.368-8.658c3.33-8.134 7.213-16.465 11.742-24.796h36.867a248.372 248.372 0 019.959 20.554 263.637 263.637 0 015.177 12.984c6.853 18.577 10.877 35.723 13.232 48.996 2.904 16.374 3.269 26.854 3.269 26.854z" class="Vector_11"/>
              </g>
            </g>
          </g>
        </g>
      </g>
      <g class="Group_45">
        <g class="Group_46">
          <g class="Group_47">
            <g class="Group_48">
              <g class="Group_49">
                <path fill="#00227B" d="M140.253 126.502c1.935 2.192 2.82 4.742 3.637 7.304a206.95 206.95 0 011.201 3.854c.194.645.392 1.288.565 1.939.177.648.35 1.299.523 1.95l.507 1.954c.167.652.336 1.303.492 1.959l.922 3.932c.15.656.314 1.308.461 1.965l.439 1.971.452 1.968c.151.655.308 1.31.45 1.967l.869 3.944c.149.656.277 1.317.415 1.976l.407 1.978.203.989.102.494.095.496.381 1.983c.127.661.258 1.322.396 1.981.131.66.264 1.321.402 1.98.581 2.633 1.004 5.299 1.18 8 .023.338.049.674.065 1.013l.042 1.016c.022.678.04 1.356.03 2.038a35.982 35.982 0 01-.062 2.047c-.04.684-.096 1.368-.197 2.057a.241.241 0 01-.273.205.242.242 0 01-.189-.155l-.001-.003c-.479-1.29-.87-2.586-1.239-3.881-.182-.648-.357-1.297-.526-1.946l-.244-.975a82.63 82.63 0 01-1.066-4.893 65.442 65.442 0 01-.324-1.974c-.106-.659-.203-1.318-.304-1.978-.099-.66-.202-1.319-.307-1.978a94.548 94.548 0 00-.362-1.969l-.378-1.966-.094-.491-.101-.491-.202-.98-.403-1.961c-.137-.653-.265-1.308-.412-1.959l-.863-3.911c-.138-.653-.3-1.3-.452-1.95l-.472-1.946-.482-1.942c-.079-.324-.168-.646-.253-.969l-.259-.966-1.042-3.865c-.36-1.284-.729-2.566-1.08-3.854-.175-.643-.35-1.287-.52-1.932l-.127-.484-.134-.482-.264-.965a211.62 211.62 0 01-1.017-3.872l-.242-.972c-.081-.324-.17-.646-.255-.969-.169-.646-.311-1.3-.418-1.966a17.398 17.398 0 01-.208-2.035 13.137 13.137 0 01-.004-1.051c.013-.355.036-.714.097-1.086l.003-.014a.254.254 0 01.44-.129z" class="Vector_12"/>
              </g>
            </g>
          </g>
        </g>
        <g class="Group_50">
          <g class="Group_51">
            <g class="Group_52">
              <g class="Group_53">
                <path fill="#00227B" d="M53.625 189.273a7.783 7.783 0 01-.36-1.042 11.73 11.73 0 01-.239-1.039 15.751 15.751 0 01-.245-2.07c-.018-.344-.031-.688-.03-1.03 0-.343.014-.683.03-1.024l.057-1.023c.017-.341.038-.681.066-1.021.104-1.36.205-2.722.362-4.075.071-.678.15-1.354.229-2.032.038-.338.09-.675.135-1.013l.14-1.012.295-2.022c.104-.673.224-1.343.336-2.015.23-1.342.447-2.685.71-4.021.255-1.337.488-2.677.75-4.012.265-1.333.523-2.669.778-4.005.065-.334.124-.669.195-1.001l.21-.998.42-1.996.419-1.995c.035-.167.068-.334.105-.499l.116-.497.23-.994.92-3.973c.074-.332.157-.662.24-.991.08-.331.161-.661.238-.992.155-.662.309-1.324.456-1.988.151-.663.299-1.327.455-1.99.15-.663.338-1.316.527-1.97a61.96 61.96 0 011.286-3.874l.356-.957c.06-.159.127-.317.192-.475.066-.157.13-.315.198-.472.27-.629.542-1.255.832-1.874a47.18 47.18 0 01.9-1.849 28.69 28.69 0 011.003-1.811.237.237 0 01.33-.078.244.244 0 01.113.22v.003c-.15 2.791-.666 5.446-1.174 8.101-.131.662-.265 1.323-.411 1.981a62.067 62.067 0 01-.475 1.961 320.993 320.993 0 01-1.074 3.888c-.184.647-.364 1.294-.541 1.943-.09.324-.174.649-.26.974-.084.326-.171.651-.243.979l-.91 3.932-.227.983-.114.491c-.037.164-.07.329-.105.493l-.415 1.975-.415 1.974-.208.988c-.07.329-.128.661-.192.99-1.066 5.276-1.782 10.616-2.478 15.945l-.27 1.997c-.085.666-.169 1.333-.26 1.998l-.537 3.995c-.098.665-.176 1.331-.265 1.996-.046.333-.094.666-.155.997-.06.332-.12.663-.193.994a21.026 21.026 0 01-.54 1.979c-.107.329-.235.659-.366.987-.134.328-.28.658-.46.985l-.002.003a.257.257 0 01-.353.102.279.279 0 01-.112-.124z" class="Vector_13"/>
              </g>
            </g>
          </g>
        </g>
      </g>
      <g class="Group_54">
        <g class="Group_55">
          <g class="Group_56">
            <g class="Group_57">
              <g class="Group_58">
                <path fill="#fff" d="M82.702 167.168c-5.711 2.345-14.55 1.855-20.576 1.115-3.614-.443-6.152-3.826-5.619-7.478.486-3.333 3.379-5.757 6.697-5.6 5.636.269 14.091.394 19.445-.811" class="Vector_14"/>
              </g>
            </g>
          </g>
        </g>
        <g class="Group_59" opacity=".35">
          <g class="Group_60" opacity=".35">
            <g class="Group_61" opacity=".35">
              <g class="Group_62" opacity=".35">
                <path fill="#00227B" d="M82.703 167.167c-5.713 2.349-14.552 1.853-20.577 1.118-3.614-.444-6.151-3.828-5.618-7.478a6.588 6.588 0 01.664-2.083c.952 1.843 2.754 3.201 4.954 3.472 6.015.74 14.839 1.23 20.552-1.103l.025 6.074z" class="Vector_15" opacity=".35"/>
              </g>
            </g>
          </g>
        </g>
        <g class="Group_63">
          <g class="Group_64">
            <g class="Group_65">
              <g class="Group_66">
                <path fill="#00227B" d="M71.347 170.433c-3.305 0-6.59-.277-9.404-.622a7.895 7.895 0 01-5.384-3.125 8.128 8.128 0 01-1.553-6.106 8.124 8.124 0 012.822-5.069 7.882 7.882 0 015.447-1.84c8.303.394 15.066.118 19.045-.777.799-.179 2.784-.186 3.955 3.634 1.19 3.881 1.058 10.4-3.004 12.068-3.35 1.374-7.652 1.837-11.924 1.837zm-8.45-13.696c-2.447 0-4.527 1.807-4.889 4.293a5.046 5.046 0 00.963 3.789 4.892 4.892 0 003.338 1.937c8.616 1.057 15.657.697 19.824-1.014 1.238-.508 1.593-2.542 1.689-3.392.333-2.977-.56-5.727-1.12-6.393-5.43 1.158-13.612 1.069-19.568.786a4.76 4.76 0 00-.238-.006z" class="Vector_16"/>
              </g>
            </g>
          </g>
        </g>
        <g class="Group_67">
          <g class="Group_68">
            <g class="Group_69">
              <g class="Group_70">
                <path fill="#fff" d="M126.388 167.168c5.712 2.345 14.551 1.855 20.576 1.115 3.615-.443 6.152-3.826 5.619-7.478-.486-3.333-3.379-5.757-6.697-5.6-5.636.269-14.091.394-19.445-.811" class="Vector_17"/>
              </g>
            </g>
          </g>
        </g>
        <g class="Group_71" opacity=".35">
          <g class="Group_72" opacity=".35">
            <g class="Group_73" opacity=".35">
              <g class="Group_74" opacity=".35">
                <path fill="#00227B" d="M146.963 168.285c-6.026.735-14.864 1.231-20.578-1.117l.025-6.132c5.713 2.334 14.537 1.843 20.553 1.103 2.189-.265 3.981-1.613 4.938-3.446.337.644.574 1.353.684 2.113.529 3.651-2.008 7.036-5.622 7.479z" class="Vector_18" opacity=".35"/>
              </g>
            </g>
          </g>
        </g>
        <g class="Group_75">
          <g class="Group_76">
            <g class="Group_77">
              <g class="Group_78">
                <path fill="#00227B" d="M137.744 170.433c-4.272 0-8.574-.463-11.925-1.838-4.062-1.668-4.194-8.187-3.004-12.068 1.171-3.819 3.157-3.813 3.955-3.634 3.98.896 10.743 1.172 19.046.777a7.887 7.887 0 015.446 1.84 8.12 8.12 0 012.822 5.07 8.128 8.128 0 01-1.552 6.105 7.893 7.893 0 01-5.385 3.125c-2.813.345-6.1.623-9.403.623zm-11.355-14.476c-.56.666-1.453 3.416-1.12 6.393.096.85.451 2.884 1.689 3.393 4.167 1.71 11.208 2.071 19.825 1.013a4.893 4.893 0 003.337-1.937 5.043 5.043 0 00.963-3.789c-.373-2.565-2.577-4.407-5.125-4.287-5.957.283-14.139.371-19.569-.786z" class="Vector_19"/>
              </g>
            </g>
          </g>
        </g>
        <g class="Group_79">
          <g class="Group_80">
            <g class="Group_81">
              <g class="Group_82">
                <path fill="#fff" d="M128.596 150.174v20.47c0 3.798-3.066 6.907-6.811 6.907H84.612c-3.74 0-6.806-3.109-6.806-6.907v-20.47c0-3.798 3.066-6.902 6.806-6.902h37.173c2.205 0 4.173 1.078 5.421 2.736a6.918 6.918 0 011.39 4.166z" class="Vector_20"/>
              </g>
            </g>
          </g>
        </g>
        <g class="Group_83" opacity=".35">
          <g class="Group_84" opacity=".35">
            <g class="Group_85" opacity=".35">
              <g class="Group_86" opacity=".35">
                <path fill="#00227B" d="M128.594 150.174v20.47c0 3.798-3.063 6.905-6.808 6.905H84.613c-3.745 0-6.809-3.107-6.809-6.905v-7.657c5.583 5.773 16.563 9.397 26.633 9.451 3.235.017 5.845-2.578 6.076-5.852l.008-.098c.248-2.872 2.58-5.197 5.415-5.404 3.229-.236 5.955 2.182 6.274 5.326 4.874-6.103 3.447-16.709 4.997-20.402a6.915 6.915 0 011.387 4.166z" class="Vector_21" opacity=".35"/>
              </g>
            </g>
          </g>
        </g>
        <g class="Group_87">
          <g class="Group_88">
            <g class="Group_89">
              <g class="Group_90">
                <path fill="#00227B" d="M121.787 179.088H84.612c-4.59 0-8.324-3.787-8.324-8.441v-20.473c0-4.655 3.734-8.442 8.324-8.442h37.175c4.589 0 8.324 3.787 8.324 8.442v20.473c0 4.654-3.735 8.441-8.324 8.441zm-37.175-34.279c-2.917 0-5.29 2.407-5.29 5.365v20.473c0 2.958 2.373 5.365 5.29 5.365h37.175c2.917 0 5.29-2.407 5.29-5.365v-20.473c0-2.958-2.373-5.365-5.29-5.365H84.612z" class="Vector_22"/>
              </g>
            </g>
          </g>
        </g>
        <g class="Group_91">
          <g class="Group_92">
            <g class="Group_93">
              <g class="Group_94">
                <path fill="#22A7F0" d="M116.369 166.363c3.242 0 5.871-2.665 5.871-5.953 0-3.288-2.629-5.954-5.871-5.954-3.242 0-5.871 2.666-5.871 5.954s2.629 5.953 5.871 5.953z" class="Vector_23"/>
              </g>
            </g>
          </g>
        </g>
        <g class="Group_95" opacity=".7">
          <g class="Group_96" opacity=".7">
            <g class="Group_97" opacity=".7">
              <g class="Group_98" opacity=".7">
                <path fill="#fff" d="M122.239 160.41c0 .407-.038.803-.114 1.19-.542-2.723-2.913-4.771-5.755-4.771-2.845 0-5.216 2.048-5.758 4.771a6.148 6.148 0 01-.115-1.19c0-3.29 2.63-5.952 5.873-5.952 3.239 0 5.869 2.662 5.869 5.952z" class="Vector_24" opacity=".7"/>
              </g>
            </g>
          </g>
        </g>
        <g class="Group_99" opacity=".35">
          <g class="Group_100" opacity=".35">
            <g class="Group_101" opacity=".35">
              <g class="Group_102" opacity=".35">
                <path fill="#00227B" d="M122.238 160.409c0 3.287-2.628 5.952-5.869 5.952-3.241 0-5.869-2.665-5.869-5.952 0-.76.141-1.486.403-2.154.845 2.221 2.975 3.793 5.467 3.793 2.491 0 4.62-1.572 5.467-3.793a5.92 5.92 0 01.401 2.154z" class="Vector_25" opacity=".35"/>
              </g>
            </g>
          </g>
        </g>
        <g class="Group_103">
          <g class="Group_104">
            <g class="Group_105">
              <g class="Group_106">
                <path fill="#00227B" d="M116.369 167.517c-3.864 0-7.008-3.188-7.008-7.107s3.144-7.107 7.008-7.107 7.008 3.188 7.008 7.107-3.144 7.107-7.008 7.107zm0-11.906c-2.609 0-4.732 2.153-4.732 4.799 0 2.646 2.123 4.799 4.732 4.799s4.732-2.153 4.732-4.799c0-2.646-2.123-4.799-4.732-4.799z" class="Vector_26"/>
              </g>
            </g>
          </g>
        </g>
        <g class="Group_107">
          <g class="Group_108">
            <g class="Group_109">
              <g class="Group_110">
                <path fill="#00227B" d="M99.734 178.703a1.145 1.145 0 01-1.137-1.153v-14.021l-7.434-5.677v-14.581c0-.638.51-1.154 1.137-1.154.628 0 1.138.517 1.138 1.154v13.43l7.434 5.676v15.173c0 .637-.51 1.153-1.138 1.153z" class="Vector_27"/>
              </g>
            </g>
          </g>
        </g>
      </g>
      <g class="Group_111">
        <g class="Group_112">
          <g class="Group_113">
            <g class="Group_114">
              <g class="Group_115">
                <path fill="#fff" d="M103.928 188.571c6.576 0 12.9-2.474 17.839-6.877 6.841-6.099 18.358-13.373 31.07-8.707 5.1 1.87 8.576 5.303 10.948 9.101 6.107-14.351 18.919-15.211 24.464-7.078 0 0-9.321 45.098-12.359 46.102-4.352 1.438-14.809-.074-14.809-.074s-36.379-4.995-57.153-4.995c-20.773 0-57.152 4.995-57.152 4.995s-10.457 1.511-14.81.074c-3.037-1.004-12.358-46.102-12.358-46.102 5.544-8.134 18.357-7.273 24.464 7.078 2.371-3.799 5.847-7.231 10.948-9.101 12.712-4.666 24.229 2.608 31.07 8.707 4.94 4.402 11.263 6.877 17.838 6.877z" class="Vector_28"/>
              </g>
            </g>
          </g>
        </g>
        <g class="Group_116" opacity=".35">
          <path fill="#00227B" d="M188.25 175.009s-9.322 45.099-12.36 46.103c-4.35 1.438-14.809-.073-14.809-.073s-36.378-4.996-57.153-4.996c-20.771 0-57.153 4.996-57.153 4.996s-10.456 1.511-14.805.073c-3.038-1.004-12.36-46.103-12.36-46.103a12.102 12.102 0 013.265-3.266c2.99 13.223 7.229 30.489 9.095 31.104 4.35 1.434 14.805-.077 14.805-.077s36.382-9.992 57.153-9.992c20.775 0 57.153 9.992 57.153 9.992s10.459 1.511 14.809.077c1.867-.615 6.106-17.881 9.095-31.104a12.132 12.132 0 013.265 3.266z" class="Vector_29"/>
        </g>
        <g class="Group_117">
          <g class="Group_118">
            <g class="Group_119">
              <g class="Group_120">
                <path fill="#00227B" d="M37.575 223.266c-2.281 0-4.51-.173-6.078-.691-1.069-.353-1.968-1.555-3.655-6.884-.987-3.12-2.172-7.464-3.52-12.912-2.428-9.808-4.795-20.809-5.7-25.083-.474-2.237.25-4.552 1.888-6.039 3.145-2.856 7.362-3.955 11.566-3.016 2.65.592 5.228 1.995 7.457 4.057 1.845 1.709 3.45 3.844 4.787 6.368 2.714-3.513 6.132-6.039 10.186-7.526 4.594-1.687 9.4-2.021 14.287-.996 3.945.829 7.957 2.547 11.923 5.107.707.457.914 1.408.465 2.125a1.506 1.506 0 01-2.095.472c-8.163-5.271-16.085-6.554-23.548-3.814-4.208 1.544-7.635 4.395-10.182 8.477a1.514 1.514 0 01-1.401.712 1.52 1.52 0 01-1.274-.925c-2.552-5.996-6.655-10.024-11.257-11.051-3.24-.723-6.481.117-8.89 2.305-.829.751-1.19 1.939-.945 3.101.854 4.033 3.092 14.442 5.424 23.952 1.281 5.227 2.417 9.48 3.376 12.638 1.343 4.424 2.044 5.721 2.293 6.083 3.427.974 11.136.188 13.881-.209l.01-.002c.364-.049 36.72-5.008 57.356-5.008 20.638 0 56.992 4.959 57.356 5.008l.011.002c2.746.397 10.454 1.183 13.881.209.245-.355.927-1.615 2.225-5.858.936-3.06 2.044-7.183 3.295-12.255 2.23-9.045 4.367-18.886 5.443-23.946.353-1.659-.26-3.359-1.561-4.331-2.482-1.856-5.559-2.41-8.662-1.56-4.447 1.219-8.26 5.098-10.738 10.923-.223.524-.713.88-1.274.924a1.51 1.51 0 01-1.401-.711c-2.548-4.081-5.973-6.933-10.182-8.478-7.528-2.762-15.519-1.435-23.752 3.946a1.504 1.504 0 01-2.097-.46 1.552 1.552 0 01.454-2.127c3.99-2.608 8.028-4.363 12-5.218 4.935-1.062 9.789-.737 14.427.965 4.055 1.488 7.472 4.015 10.187 7.528 2.849-5.372 6.897-8.978 11.584-10.262 3.957-1.085 8.059-.337 11.255 2.053 2.26 1.69 3.33 4.616 2.727 7.455-1.139 5.362-3.397 15.749-5.72 25.075-1.317 5.288-2.475 9.501-3.439 12.521-1.646 5.152-2.53 6.318-3.587 6.667-4.613 1.524-14.959.063-15.486-.013-.57-.078-36.572-4.98-56.945-4.98-20.376 0-56.375 4.902-56.945 4.98-.35.048-4.977.702-9.41.702z" class="Vector_30"/>
              </g>
            </g>
          </g>
        </g>
        <g class="Group_121">
          <g class="Group_122">
            <g class="Group_123">
              <g class="Group_124">
                <path fill="#AFAFB2" d="M173.189 221.112h2.702c3.172 0 6.048-1.887 7.339-4.824 4.045-9.185 11.419-29.367 4.512-41.683a13.366 13.366 0 00-.644-1.037s-6.631-6.116-11.395 2.537c-4.45 8.083-13.79 42.647-2.514 45.007z" class="Vector_31"/>
              </g>
            </g>
          </g>
        </g>
        <g class="Group_125" opacity=".7">
          <g class="Group_126" opacity=".7">
            <g class="Group_127" opacity=".7">
              <g class="Group_128" opacity=".7">
                <path fill="#fff" d="M173.263 181.866c.119-.194.239-.376.355-.546 5.857-8.653 14.011-2.536 14.011-2.536.28.331.546.677.791 1.036a18.194 18.194 0 011.983 3.76c-.33-3.234-1.155-6.292-2.661-8.974a13.366 13.366 0 00-.644-1.037s-6.631-6.117-11.395 2.536c-.723 1.31-1.571 3.311-2.44 5.761z" class="Vector_32" opacity=".7"/>
              </g>
            </g>
          </g>
        </g>
        <g class="Group_129">
          <g class="Group_130">
            <g class="Group_131">
              <g class="Group_132">
                <path fill="#00227B" d="M190.367 184.503c-.068 0-.138-.006-.208-.018l-16.574-2.806a1.267 1.267 0 01-1.028-1.46 1.253 1.253 0 011.439-1.043l16.574 2.806a1.268 1.268 0 011.029 1.461 1.256 1.256 0 01-1.232 1.06z" class="Vector_33"/>
              </g>
            </g>
          </g>
        </g>
        <g class="Group_133">
          <g class="Group_134">
            <g class="Group_135">
              <g class="Group_136">
                <path fill="#00227B" d="M190.261 193.584c-.056 0-.111-.003-.168-.011l-19.389-2.644a1.265 1.265 0 01-1.073-1.426 1.254 1.254 0 011.407-1.088l19.388 2.643a1.266 1.266 0 011.074 1.426 1.258 1.258 0 01-1.239 1.1z" class="Vector_34"/>
              </g>
            </g>
          </g>
        </g>
        <g class="Group_137">
          <g class="Group_138">
            <g class="Group_139">
              <g class="Group_140">
                <path fill="#00227B" d="M188.551 202.479c-.05 0-.101-.003-.153-.009l-19.682-2.443a1.266 1.266 0 01-1.09-1.413 1.254 1.254 0 011.393-1.105l19.683 2.443a1.265 1.265 0 011.089 1.413 1.256 1.256 0 01-1.24 1.114z" class="Vector_35"/>
              </g>
            </g>
          </g>
        </g>
        <g class="Group_141">
          <g class="Group_142">
            <g class="Group_143">
              <g class="Group_144">
                <path fill="#00227B" d="M185.43 212.18a1.47 1.47 0 01-.114-.005l-17.597-1.61a1.264 1.264 0 01-1.133-1.378 1.255 1.255 0 011.358-1.149l17.597 1.61c.688.063 1.196.68 1.133 1.378a1.257 1.257 0 01-1.244 1.154z" class="Vector_36"/>
              </g>
            </g>
          </g>
        </g>
        <g class="Group_145" opacity=".35">
          <g class="Group_146" opacity=".35">
            <g class="Group_147" opacity=".35">
              <g class="Group_148" opacity=".35">
                <path fill="#00227B" d="M173.188 221.112h2.702c3.172 0 6.048-1.887 7.339-4.825a109.718 109.718 0 003.507-9.022c-1.622 2.73-4.917 4.461-8.536 4.461h-3.22c-4.583-.805-6.308-5.363-6.376-11.338-1.549 10.085-1.124 19.529 4.584 20.724z" class="Vector_37" opacity=".35"/>
              </g>
            </g>
          </g>
        </g>
        <g class="Group_149">
          <g class="Group_150">
            <g class="Group_151">
              <g class="Group_152">
                <path fill="#00227B" d="M175.891 222.381h-2.702c-.085 0-.169-.009-.253-.027-2.184-.457-3.834-1.893-4.905-4.269-2.526-5.6-1.299-15.356.176-22.554 1.803-8.797 4.587-16.743 6.405-20.045 1.671-3.036 3.776-4.784 6.256-5.194 3.804-.629 6.941 2.217 7.072 2.338.07.063.131.135.185.212.249.362.487.745.706 1.137 3.157 5.628 3.827 13.328 1.991 22.883-1.492 7.769-4.33 15.133-6.448 19.942-1.49 3.388-4.819 5.577-8.483 5.577zm-2.566-2.537h2.566c2.677 0 5.11-1.599 6.197-4.072 2.065-4.69 4.83-11.861 6.278-19.393 1.718-8.943 1.142-16.058-1.711-21.146a12.215 12.215 0 00-.493-.807c-.469-.388-2.598-2.017-4.905-1.627-1.683.285-3.184 1.605-4.461 3.925-1.682 3.056-4.406 10.867-6.139 19.323-1.977 9.65-2.102 17.102-.351 20.984.711 1.575 1.699 2.497 3.019 2.813z" class="Vector_38"/>
              </g>
            </g>
          </g>
        </g>
        <g class="Group_153">
          <g class="Group_154">
            <g class="Group_155">
              <g class="Group_156">
                <path fill="#AFAFB2" d="M34.67 221.112h-2.702c-3.172 0-6.048-1.887-7.34-4.824-4.044-9.185-11.418-29.367-4.51-41.683.2-.359.416-.705.643-1.037 0 0 6.631-6.116 11.395 2.537 4.45 8.083 13.79 42.647 2.514 45.007z" class="Vector_39"/>
              </g>
            </g>
          </g>
        </g>
        <g class="Group_157" opacity=".7">
          <g class="Group_158" opacity=".7">
            <g class="Group_159" opacity=".7">
              <g class="Group_160" opacity=".7">
                <path fill="#fff" d="M34.594 181.866c-.119-.194-.238-.376-.354-.546-5.857-8.653-14.012-2.536-14.012-2.536a12.8 12.8 0 00-.79 1.036 18.199 18.199 0 00-1.983 3.76c.33-3.234 1.155-6.292 2.66-8.974.202-.359.417-.705.645-1.037 0 0 6.63-6.117 11.395 2.536.722 1.31 1.57 3.311 2.44 5.761z" class="Vector_40" opacity=".7"/>
              </g>
            </g>
          </g>
        </g>
        <g class="Group_161">
          <g class="Group_162">
            <g class="Group_163">
              <g class="Group_164">
                <path fill="#00227B" d="M17.488 184.503c-.6 0-1.13-.44-1.232-1.06a1.267 1.267 0 011.028-1.46l16.574-2.806a1.252 1.252 0 011.44 1.043 1.268 1.268 0 01-1.029 1.46l-16.574 2.806c-.07.012-.138.017-.207.017z" class="Vector_41"/>
              </g>
            </g>
          </g>
        </g>
        <g class="Group_165">
          <g class="Group_166">
            <g class="Group_167">
              <g class="Group_168">
                <path fill="#00227B" d="M17.596 193.585a1.257 1.257 0 01-1.238-1.1 1.266 1.266 0 011.073-1.426l19.39-2.644a1.254 1.254 0 011.406 1.088 1.265 1.265 0 01-1.073 1.426l-19.39 2.645a1.372 1.372 0 01-.168.011z" class="Vector_42"/>
              </g>
            </g>
          </g>
        </g>
        <g class="Group_169">
          <g class="Group_170">
            <g class="Group_171">
              <g class="Group_172">
                <path fill="#00227B" d="M19.307 202.479a1.257 1.257 0 01-1.24-1.114 1.264 1.264 0 011.09-1.413l19.682-2.444c.685-.084 1.31.41 1.393 1.106a1.265 1.265 0 01-1.09 1.413L19.46 202.47a1.144 1.144 0 01-.153.009z" class="Vector_43"/>
              </g>
            </g>
          </g>
        </g>
        <g class="Group_173">
          <g class="Group_174">
            <g class="Group_175">
              <g class="Group_176">
                <path fill="#00227B" d="M22.428 212.18c-.64 0-1.185-.496-1.244-1.154a1.264 1.264 0 011.134-1.378l17.596-1.61a1.255 1.255 0 011.359 1.149 1.265 1.265 0 01-1.134 1.378l-17.596 1.61a1.473 1.473 0 01-.114.005z" class="Vector_44"/>
              </g>
            </g>
          </g>
        </g>
        <g class="Group_177" opacity=".35">
          <g class="Group_178" opacity=".35">
            <g class="Group_179" opacity=".35">
              <g class="Group_180" opacity=".35">
                <path fill="#00227B" d="M34.67 221.112h-2.702c-3.172 0-6.049-1.887-7.34-4.825a109.919 109.919 0 01-3.507-9.022c1.622 2.73 4.918 4.461 8.536 4.461h3.22c4.584-.805 6.308-5.363 6.376-11.338 1.55 10.085 1.124 19.529-4.584 20.724z" class="Vector_45" opacity=".35"/>
              </g>
            </g>
          </g>
        </g>
        <g class="Group_181">
          <g class="Group_182">
            <g class="Group_183">
              <g class="Group_184">
                <path fill="#00227B" d="M34.67 222.381h-2.702c-3.663 0-6.993-2.189-8.482-5.577-2.118-4.808-4.956-12.172-6.449-19.941-1.835-9.555-1.166-17.255 1.992-22.884.219-.392.456-.774.705-1.136.053-.078.115-.149.184-.212.132-.122 3.268-2.967 7.072-2.338 2.48.41 4.586 2.158 6.257 5.194 1.818 3.302 4.601 11.248 6.404 20.044 1.475 7.199 2.703 16.955.177 22.555-1.072 2.376-2.722 3.812-4.906 4.269a1.27 1.27 0 01-.252.026zm-12.974-47.954c-.173.258-.338.528-.493.805-2.853 5.089-3.43 12.203-1.71 21.147 1.447 7.533 4.211 14.703 6.277 19.393 1.088 2.474 3.52 4.072 6.197 4.072h2.566c1.32-.315 2.309-1.237 3.02-2.813 1.75-3.882 1.625-11.334-.352-20.984-1.733-8.456-4.456-16.267-6.139-19.323-1.276-2.32-2.777-3.64-4.46-3.925-2.303-.389-4.431 1.235-4.906 1.628z" class="Vector_46"/>
              </g>
            </g>
          </g>
        </g>
        <g class="Group_185">
          <g class="Group_186">
            <g class="Group_187">
              <g class="Group_188">
                <path fill="#00227B" d="M65.168 219.954c-.178 0-.358-.042-.527-.132a1.16 1.16 0 01-.48-1.557c4.75-9.205 4.82-19.558.209-30.769-3.48-8.456-8.461-14.242-8.511-14.3a1.165 1.165 0 01.1-1.628 1.125 1.125 0 011.606.101c.213.245 5.248 6.083 8.878 14.873 2.141 5.186 3.335 10.319 3.55 15.255.27 6.206-1.014 12.107-3.816 17.538-.204.394-.6.619-1.01.619z" class="Vector_47"/>
              </g>
            </g>
          </g>
        </g>
        <g class="Group_189">
          <g class="Group_190">
            <g class="Group_191">
              <g class="Group_192">
                <path fill="#00227B" d="M143.152 219.954c-.411 0-.806-.225-1.009-.619-2.803-5.431-4.087-11.331-3.817-17.537.215-4.936 1.409-10.069 3.551-15.255 3.629-8.79 8.665-14.63 8.877-14.873a1.126 1.126 0 011.606-.102c.471.422.516 1.15.1 1.628-.05.058-5.031 5.844-8.51 14.3-4.612 11.212-4.542 21.564.208 30.769a1.162 1.162 0 01-.48 1.557c-.169.09-.349.132-.526.132z" class="Vector_48"/>
              </g>
            </g>
          </g>
        </g>
      </g>
      <g class="Group_193" opacity=".35">
        <path fill="#00227B" d="M141.629 109.105a58.417 58.417 0 01-4.13 4.328c-3.413 3.223-7.153 5.965-11.154 8.138-6.759 3.677-14.256 5.739-22.152 5.777-7.715.035-15.057-1.865-21.712-5.319-4.358-2.266-8.42-5.192-12.095-8.681a60.483 60.483 0 01-5.188-5.608c2.947-.922 5.875-1.992 8.556-3.05 3.33-8.134 7.213-16.465 11.741-24.796h36.867a248.164 248.164 0 019.959 20.553c2.777 1.643 5.974 4.735 9.308 8.658z" class="Vector_49"/>
      </g>
      <g class="Group_194">
        <g class="Group_195">
          <g class="Group_196">
            <g class="Group_197">
              <g class="Group_198">
                <path fill="#fff" d="M160.227 71.963c-.642.07-1.218-.401-1.288-1.052l-3.598-33.958a1.182 1.182 0 011.038-1.305c6.735-.734 12.781 4.208 13.505 11.038l1.229 11.58c.723 6.83-4.151 12.963-10.886 13.697z" class="Vector_50"/>
              </g>
            </g>
          </g>
          <g class="Group_199">
            <g class="Group_200">
              <g class="Group_201">
                <path fill="#00227B" d="M160.1 72.262c-.332 0-.651-.113-.912-.327a1.472 1.472 0 01-.534-.993l-3.599-33.957c-.041-.393.07-.778.315-1.085.244-.307.592-.5.979-.542 6.883-.75 13.083 4.318 13.823 11.298l1.227 11.58a12.77 12.77 0 01-2.708 9.349c-2.104 2.647-5.099 4.306-8.433 4.67l-.031-.291.031.29a1.654 1.654 0 01-.158.008zm-2.401-36.394c-.426 0-.856.023-1.289.07a.875.875 0 00-.592.327.9.9 0 00-.19.656l3.598 33.958c.025.237.141.45.324.6.183.15.413.218.647.193 3.181-.347 6.038-1.93 8.046-4.455a12.184 12.184 0 002.584-8.92l-1.227-11.58c-.66-6.22-5.866-10.85-11.901-10.85z" class="Vector_51"/>
              </g>
            </g>
          </g>
        </g>
        <g class="Group_202" opacity=".35">
          <g class="Group_203" opacity=".35">
            <g class="Group_204" opacity=".35">
              <g class="Group_205" opacity=".35">
                <path fill="#00227B" d="M170.537 52.836l.577 5.43c.723 6.829-4.15 12.962-10.886 13.7a1.175 1.175 0 01-1.288-1.055l-.96-9.027a1.17 1.17 0 001.132.584l.794-.089c5.322-.579 9.484-4.532 10.631-9.543z" class="Vector_52" opacity=".35"/>
              </g>
            </g>
          </g>
        </g>
        <g class="Group_206">
          <g class="Group_207">
            <g class="Group_208">
              <g class="Group_209">
                <path fill="#00227B" d="M160.098 73.597a2.727 2.727 0 01-1.735-.623 2.8 2.8 0 01-1.018-1.89l-3.598-33.956a2.824 2.824 0 01.598-2.066 2.741 2.741 0 011.863-1.032c7.603-.829 14.455 4.771 15.272 12.483l1.227 11.58a14.113 14.113 0 01-2.991 10.33c-2.325 2.925-5.634 4.757-9.318 5.158-.099.01-.2.016-.3.016zm-.04-3.252h-.001.001zm-3.072-33.117l3.503 33.062c2.658-.4 5.034-1.776 6.73-3.91a10.844 10.844 0 002.299-7.94l-1.226-11.58c-.613-5.78-5.637-10.018-11.306-9.633z" class="Vector_53"/>
              </g>
            </g>
          </g>
        </g>
        <g class="Group_210">
          <g class="Group_211">
            <g class="Group_212">
              <g class="Group_213">
                <path fill="#fff" d="M45.857 47.693c.642-.07 1.218.4 1.287 1.052l3.598 33.957a1.181 1.181 0 01-1.037 1.305c-6.735.734-12.782-4.208-13.506-11.038l-1.226-11.58c-.726-6.83 4.148-12.962 10.884-13.696z" class="Vector_54"/>
              </g>
            </g>
          </g>
          <g class="Group_214">
            <g class="Group_215">
              <g class="Group_216">
                <path fill="#00227B" d="M48.384 84.372c-6.325 0-11.782-4.852-12.472-11.372l-1.227-11.58c-.74-6.98 4.258-13.268 11.141-14.018l.03.29-.03-.29a1.464 1.464 0 011.604 1.311l3.599 33.958c.085.81-.495 1.54-1.294 1.627-.453.05-.905.074-1.35.074zm-2.402-36.394a.931.931 0 00-.095.005c-6.567.715-11.335 6.715-10.629 13.375l1.227 11.58c.705 6.66 6.62 11.495 13.188 10.78a.892.892 0 00.783-.984l-3.599-33.957a.888.888 0 00-.875-.8z" class="Vector_55"/>
              </g>
            </g>
          </g>
        </g>
        <g class="Group_217" opacity=".35">
          <g class="Group_218" opacity=".35">
            <g class="Group_219" opacity=".35">
              <g class="Group_220" opacity=".35">
                <path fill="#00227B" d="M49.747 73.281l.998 9.42a1.184 1.184 0 01-1.04 1.307c-3.536.383-6.885-.794-9.371-2.992a12.454 12.454 0 01-4.133-8.045l-.517-4.88c2.366 4.073 6.941 6.59 11.88 6.053l1.221-.133c.445-.05.798-.34.962-.73z" class="Vector_56" opacity=".35"/>
              </g>
            </g>
          </g>
        </g>
        <g class="Group_221">
          <g class="Group_222">
            <g class="Group_223">
              <g class="Group_224">
                <path fill="#00227B" d="M48.384 85.707c-6.99 0-13.017-5.36-13.78-12.565l-1.227-11.58c-.817-7.711 4.705-14.66 12.309-15.488 1.52-.166 2.89.954 3.054 2.496l3.598 33.958c.163 1.542-.94 2.93-2.462 3.096-.501.056-1 .083-1.492.083zm-2.788-36.34c-5.62.845-9.641 6.068-9.03 11.849l1.227 11.58c.613 5.78 5.636 10.017 11.306 9.633l-3.503-33.063z" class="Vector_57"/>
              </g>
            </g>
          </g>
        </g>
        <g class="Group_225">
          <g class="Group_226">
            <g class="Group_227">
              <g class="Group_228">
                <path fill="#fff" d="M103.048 118.026c31.694 0 57.387-26.056 57.387-58.199 0-32.142-25.693-58.199-57.387-58.199-31.695 0-57.388 26.057-57.388 58.2 0 32.142 25.693 58.198 57.388 58.198z" class="Vector_58"/>
              </g>
            </g>
          </g>
          <g class="Group_229">
            <g class="Group_230">
              <g class="Group_231">
                <path fill="#00227B" d="M102.992 118.32c-7.036 0-13.91-1.28-20.463-3.813-6.969-2.692-13.282-6.682-18.767-11.856A58.276 58.276 0 0150.75 84.523c-3.262-7.096-5.059-14.696-5.34-22.587-.28-7.89.971-15.602 3.72-22.918A58.428 58.428 0 0160.82 19.986c5.102-5.562 11.118-10.003 17.877-13.198 6.998-3.309 14.491-5.13 22.272-5.415 7.781-.285 15.385.984 22.599 3.772 6.969 2.693 13.283 6.683 18.767 11.857a58.298 58.298 0 0113.014 18.127c3.262 7.097 5.058 14.697 5.339 22.587.281 7.891-.971 15.602-3.72 22.919a58.41 58.41 0 01-11.692 19.032c-5.102 5.562-11.116 10.002-17.875 13.197-6.998 3.309-14.491 5.13-22.272 5.415-.715.027-1.427.041-2.137.041zm.083-116.401c-.694 0-1.386.013-2.086.038C69.525 3.11 44.851 30.006 45.986 61.914c.55 15.457 7.002 29.773 18.168 40.308 10.65 10.049 24.373 15.512 38.843 15.513.702 0 1.404-.013 2.109-.039 15.242-.558 29.358-7.101 39.746-18.426 10.389-11.324 15.808-26.074 15.258-41.53-1.109-31.2-26.494-55.821-57.035-55.821z" class="Vector_59"/>
              </g>
            </g>
          </g>
        </g>
        <g class="Group_232" opacity=".35">
          <g class="Group_233" opacity=".35">
            <g class="Group_234" opacity=".35">
              <g class="Group_235" opacity=".35">
                <path fill="#00227B" d="M159.563 49.698c.459 2.616.74 5.297.838 8.031 1.138 32.121-23.611 59.1-55.284 60.261-31.674 1.154-58.276-23.944-59.421-56.065a57.564 57.564 0 01-.034-2.76c4.873 28.17 29.603 49.092 58.583 48.033 30.763-1.128 54.99-26.607 55.318-57.5z" class="Vector_60" opacity=".35"/>
              </g>
            </g>
          </g>
        </g>
        <g class="Group_236">
          <g class="Group_237">
            <g class="Group_238">
              <g class="Group_239">
                <path fill="#00227B" d="M102.992 119.654a57.806 57.806 0 01-20.931-3.899c-7.128-2.755-13.586-6.835-19.195-12.127a59.61 59.61 0 01-13.31-18.541c-3.337-7.26-5.174-15.033-5.46-23.103-.287-8.07.993-15.958 3.805-23.442A59.758 59.758 0 0159.86 19.076c5.219-5.688 11.369-10.23 18.282-13.498C85.3 2.194 92.964.331 100.922.04c7.959-.291 15.736 1.007 23.115 3.86 7.128 2.754 13.586 6.834 19.195 12.127a59.619 59.619 0 0113.309 18.54c3.338 7.26 5.175 15.033 5.461 23.104.287 8.07-.993 15.958-3.805 23.442a59.76 59.76 0 01-11.958 19.465c-5.219 5.688-11.37 10.23-18.283 13.498-7.158 3.385-14.823 5.248-22.781 5.538-.729.027-1.458.04-2.183.04zm.083-116.4c-.678 0-1.354.013-2.037.038-30.74 1.124-54.845 27.401-53.736 58.575.537 15.101 6.841 29.086 17.75 39.379 10.404 9.817 23.81 15.155 37.947 15.155.686 0 1.373-.013 2.062-.038 14.89-.545 28.68-6.938 38.83-18.001 10.15-11.063 15.444-25.473 14.906-40.574-1.085-30.482-25.885-54.534-55.722-54.534z" class="Vector_61"/>
              </g>
            </g>
          </g>
        </g>
        <g class="Group_240">
          <g class="Group_241">
            <g class="Group_242">
              <g class="Group_243">
                <path fill="#3949AB" d="M160.27 59.23c.574 11.373-2.533 22.122-8.318 31.182-4.337 6.792-22.947 19.252-46.631 20.698-21.96 1.342-42.55-9.5-47.548-15.807-6.668-8.413-10.841-18.784-11.416-30.157-1.52-30.099 23.35-43.9 54.807-45.535 31.457-1.634 57.586 9.52 59.106 39.618z" class="Vector_62"/>
              </g>
            </g>
          </g>
        </g>
        <g class="Group_244">
          <g class="Group_245">
            <g class="Group_246">
              <g class="Group_247">
                <path fill="#00227B" d="M101.509 112.344c-10.92 0-20.417-2.76-26.72-5.226-7.984-3.122-15-7.485-17.877-11.115-7.059-8.906-11.09-19.558-11.657-30.8-.377-7.461.836-14.23 3.604-20.122 2.605-5.544 6.602-10.347 11.88-14.278 9.644-7.181 23.602-11.438 40.367-12.308 16.765-.87 31.078 1.917 41.394 8.062 5.647 3.363 10.107 7.728 13.257 12.973 3.348 5.573 5.236 12.182 5.612 19.643.568 11.243-2.369 22.255-8.493 31.847-2.545 3.985-8.865 8.87-16.492 12.746-6.7 3.405-17.518 7.638-30.998 8.461a64.381 64.381 0 01-3.877.117zm5.516-91.77c-1.898 0-3.833.051-5.806.154-16.333.848-29.879 4.955-39.174 11.877-10.378 7.729-15.286 18.658-14.588 32.483.544 10.77 4.408 20.977 11.174 29.515 2.013 2.54 7.66 6.796 16.951 10.43 6.835 2.673 17.53 5.704 29.672 4.962 13.108-.801 23.627-4.917 30.143-8.228 8.732-4.438 13.877-9.218 15.63-11.962 5.87-9.195 8.686-19.748 8.143-30.518-.698-13.825-6.682-24.189-17.785-30.802-8.743-5.208-20.538-7.91-34.36-7.91z" class="Vector_63"/>
              </g>
            </g>
          </g>
        </g>
        <g class="Group_248" opacity=".5">
          <g class="Group_249" opacity=".5">
            <g class="Group_250" opacity=".5">
              <g class="Group_251" opacity=".5">
                <path fill="#fff" d="M148.825 57.077c.707-5.643-1.987-10.65-6.017-11.183-4.03-.534-7.871 3.609-8.578 9.252-.707 5.642 1.987 10.65 6.017 11.182 4.031.534 7.871-3.609 8.578-9.252z" class="Vector_64"/>
              </g>
            </g>
          </g>
        </g>
        <g class="Group_252" opacity=".5">
          <g class="Group_253" opacity=".5">
            <g class="Group_254" opacity=".5">
              <g class="Group_255" opacity=".5">
                <path fill="#fff" d="M137.438 78.023c.678-2.518-.499-5.038-2.63-5.629-2.131-.59-4.409.972-5.087 3.49-.679 2.52.499 5.04 2.63 5.63 2.131.59 4.408-.972 5.087-3.49z" class="Vector_65"/>
              </g>
            </g>
          </g>
        </g>
        <g class="Group_256" opacity=".35">
          <path fill="#00227B" d="M147.774 31.726c7.303 6.376 11.883 15.414 12.495 27.502.575 11.376-2.535 22.124-8.315 31.184-4.339 6.792-22.95 19.252-46.634 20.701-8.363.513-16.524-.743-23.705-2.846 29.075-2.411 51.739-17.694 57.117-26.119 7.344-11.499 11.287-25.143 10.556-39.575-.192-3.858-.712-7.47-1.514-10.847z" class="Vector_66"/>
        </g>
        <g class="Group_257">
          <g class="Group_258">
            <g class="Group_259">
              <g class="Group_260">
                <path fill="#00227B" d="M49.35 40.822c-.324 0-.649-.102-.928-.314a1.58 1.58 0 01-.36-2.113c2.382-3.968 5.423-7.594 9.039-10.777 3.52-3.098 7.615-5.804 12.168-8.04 4.46-2.19 9.387-3.944 14.648-5.214 5.212-1.258 10.777-2.048 16.541-2.348 5.668-.294 11.223-.095 16.509.59 5.334.691 10.406 1.881 15.073 3.535 4.776 1.692 9.145 3.877 12.988 6.494 3.95 2.691 7.366 5.856 10.156 9.407.487.547.537 1.385.081 1.994a1.529 1.529 0 01-2.162.3l-.162-.122-.121-.158c-10.331-13.206-29.36-20.1-52.205-18.913-22.972 1.193-41.174 10.276-49.94 24.918l-.04.067-.052.07a1.53 1.53 0 01-1.233.624z" class="Vector_67"/>
              </g>
            </g>
          </g>
        </g>
        <g class="Group_261" opacity=".5">
          <g class="Group_262" opacity=".5">
            <g class="Group_263" opacity=".5">
              <g class="Group_264" opacity=".5">
                <path fill="#fff" d="M60.052 82.386s-10.691-29.214 4.49-41.866c15.182-12.652 37.886-13.783 37.43-12.28 0 0-24.82 7.476-33.637 28.136-6.798 15.932-8.283 26.01-8.283 26.01z" class="Vector_68"/>
              </g>
            </g>
          </g>
        </g>
      </g>
      <g class="Group_265">
        <g class="Group_266">
          <g class="Group_267">
            <g class="Group_268">
              <g class="Group_269">
                <path fill="#E6E9FA" d="M155.058 224.461H53.278c-3.296 0-5.968-2.71-5.968-6.052 0-1.925 1.54-3.487 3.438-3.487h106.839c1.899 0 3.438 1.562 3.438 3.487 0 3.343-2.672 6.052-5.967 6.052z" class="Vector_69"/>
              </g>
            </g>
          </g>
        </g>
        <g class="Group_270" opacity=".3">
          <g class="Group_271" opacity=".3">
            <g class="Group_272" opacity=".3">
              <g class="Group_273" opacity=".3">
                <path fill="#fff" d="M161.023 218.41a6.14 6.14 0 01-.299 1.893 3.426 3.426 0 00-3.136-2.066H50.748a3.39 3.39 0 00-2.43 1.024c-.296.3-.539.65-.709 1.042a6.109 6.109 0 01-.3-1.892c0-.962.384-1.834 1.01-2.465a3.391 3.391 0 012.43-1.024h106.839c1.899 0 3.435 1.561 3.435 3.488z" class="Vector_70" opacity=".3"/>
              </g>
            </g>
          </g>
        </g>
        <g class="Group_274" opacity=".35">
          <g class="Group_275" opacity=".35">
            <g class="Group_276" opacity=".35">
              <g class="Group_277" opacity=".35">
                <path fill="#00227B" d="M161.023 218.41a6.064 6.064 0 01-1.748 4.277 5.9 5.9 0 01-4.217 1.773H53.278c-3.295 0-5.969-2.708-5.969-6.05 0-.643.171-1.246.474-1.766.902 2.166 3.026 3.689 5.495 3.689h101.779c1.646 0 3.14-.676 4.217-1.773a6.058 6.058 0 001.274-1.916c.305.52.475 1.123.475 1.766z" class="Vector_71" opacity=".35"/>
              </g>
            </g>
          </g>
        </g>
        <g class="Group_278">
          <g class="Group_279">
            <g class="Group_280">
              <g class="Group_281">
                <path fill="#00227B" d="M155.058 226H53.278c-4.127 0-7.484-3.405-7.484-7.59 0-2.77 2.223-5.025 4.955-5.025h106.838c2.732 0 4.955 2.255 4.955 5.025 0 4.184-3.357 7.59-7.484 7.59zm-104.31-9.538c-1.06 0-1.921.873-1.921 1.948 0 2.489 1.996 4.513 4.45 4.513h101.781c2.454 0 4.451-2.024 4.451-4.513 0-1.074-.862-1.948-1.922-1.948H50.747z" class="Vector_72"/>
              </g>
            </g>
          </g>
        </g>
        <g class="Group_282">
          <g class="Group_283">
            <g class="Group_284">
              <g class="Group_285">
                <path fill="#FF66AC" d="M166.966 146.791l-9.955 68.13H51.326l-.36-2.465-9.6-65.665c-.314-2.157 1.335-4.092 3.481-4.092h118.637c2.151 0 3.797 1.935 3.482 4.092z" class="Vector_73"/>
              </g>
            </g>
          </g>
        </g>
        <g class="Group_286">
          <g class="Group_287">
            <g class="Group_288">
              <g class="Group_289">
                <path fill="#E6E9FA" d="M166.966 146.791l-9.955 68.13H51.326l-.36-2.465-9.6-65.665c-.314-2.157 1.335-4.092 3.481-4.092h118.637c2.151 0 3.797 1.935 3.482 4.092z" class="Vector_74"/>
              </g>
            </g>
          </g>
        </g>
        <g class="Group_290" opacity=".5">
          <g class="Group_291" opacity=".5">
            <g class="Group_292" opacity=".5">
              <g class="Group_293" opacity=".5">
                <path fill="#fff" d="M45.119 151.02c-.315-2.157 1.335-4.092 3.481-4.092h118.347l.02-.136c.314-2.157-1.331-4.092-3.482-4.092H44.849c-2.147 0-3.796 1.935-3.482 4.092l9.599 65.665.36 2.465h3.135l-9.342-63.902z" class="Vector_75" opacity=".5"/>
              </g>
            </g>
          </g>
        </g>
        <g class="Group_294">
          <g class="Group_295" opacity=".35">
            <g class="Group_296" opacity=".35">
              <g class="Group_297" opacity=".35">
                <g class="Group_298" opacity=".35">
                  <path fill="#00227B" d="M160.149 142.699h-8.33c3.158 11.736 1.416 38.238-18.963 52.088-25.582 17.387-71.685 17.276-81.474 17.669l.36 2.465h101.934l9.955-68.13c.314-2.157-1.331-4.092-3.482-4.092z" class="Vector_76" opacity=".35"/>
                </g>
              </g>
            </g>
          </g>
        </g>
        <g class="Group_299">
          <g class="Group_300">
            <g class="Group_301">
              <g class="Group_302">
                <path fill="#00227B" d="M158.318 216.462h-108.3l-10.15-69.446a5.153 5.153 0 011.168-4.085 5.003 5.003 0 013.813-1.77h118.638a5 5 0 013.812 1.77 5.151 5.151 0 011.169 4.085l-10.15 69.446zm-105.683-3.078H155.7l9.766-66.82a2.024 2.024 0 00-.465-1.623 1.961 1.961 0 00-1.515-.704H44.849c-.591 0-1.13.25-1.515.704a2.021 2.021 0 00-.465 1.623l9.766 66.82z" class="Vector_77"/>
              </g>
            </g>
          </g>
        </g>
        <g class="Group_303" opacity=".3">
          <g class="Group_304" opacity=".3">
            <g class="Group_305" opacity=".3">
              <g class="Group_306" opacity=".3">
                <path fill="#fff" d="M59.739 199.004c-4.01-8.963-6.93-24.262-6.271-33.266.658-9.003 5.807-6.248 7.403 5.285 4.247 30.694.657 31.982-1.133 27.981z" class="Vector_78" opacity=".3"/>
              </g>
            </g>
          </g>
        </g>
        <g class="Group_307">
          <g class="Group_308">
            <g class="Group_309">
              <g class="Group_310">
                <g class="Group_311">
                  <path fill="#00227B" d="M117.975 171.08c.13-1.15.28-2.313.057-3.482-.099-.127-.19-.257-.289-.384-.329-.12-.648-.277-.99-.364-2.405-.63-4.843-.879-7.32-.663-3.23.283-6.194 1.293-8.743 3.375-.923.751-1.765 1.6-2.626 2.422-.231.224-.409.317-.733.166-.763-.352-1.585-.509-2.42-.551-2.24-.103-4.237.631-6.1 1.817-2.02 1.291-3.648 3.015-5.164 4.861-.646.782-.395 1.654.566 1.983.606.201 1.213.398 1.819.599 1.452.477 2.902.95 4.35 1.426-.003.045 0 .069-.006.092-.011.029-.024.062-.044.09-.604.788-.458 1.517.18 2.202.068.076.127.166.187.248.334.445.675.895 1.028 1.358-.483.378-.957.7-1.377 1.088a1.736 1.736 0 00-.478.761c-.136.454.096.918.494 1.157.423.258.858.247 1.252-.041.5-.36.976-.751 1.484-1.144.48.641.934 1.248 1.39 1.846.523.683.883.799 1.694.572.147-.047.293-.079.468-.122.011.176.025.317.032.449.104 2.125.199 4.252.314 6.371.052 1.004.835 1.479 1.73 1.048a47.48 47.48 0 002.407-1.231c1.825-1.007 3.486-2.24 4.811-3.88 1.659-2.063 2.577-4.368 2.147-7.091-.018-.107.07-.291.162-.346.814-.532 1.65-1.03 2.464-1.566 1.842-1.217 3.322-2.798 4.479-4.688 1.573-2.568 2.441-5.386 2.775-8.378zm-26.395 9.193l-5.201-1.719c1.845-1.989 3.798-3.726 6.428-4.459 1.137-.317 2.45-.29 3.225.03a3837.821 3837.821 0 01-4.452 6.148zm14.106 8.742c-.427 1.379-1.24 2.502-2.243 3.503-1.246 1.231-2.696 2.149-4.263 2.986-.095-1.953-.191-3.864-.287-5.736l7.019-2.766c.09.651-.02 1.341-.226 2.013zm8.754-13.08c-.763 1.826-1.764 3.489-3.192 4.866-1.101 1.056-2.35 1.903-3.666 2.657-3.568 2.042-7.391 3.45-11.3 4.641-.191.056-.308.045-.434-.132-.272-.393-.579-.772-.867-1.16-.02-.022-.026-.059-.053-.128.1-.081.206-.162.314-.245 2.23-1.737 4.472-3.469 6.704-5.209.644-.496.672-1.35.075-1.842-.417-.346-.966-.341-1.447.026a1627.42 1627.42 0 00-4.021 3.12c-1 .775-1.99 1.546-3.027 2.353-.356-.472-.7-.903-1.01-1.356-.053-.081 0-.286.072-.386 1.19-1.8 2.369-3.609 3.606-5.377a33.53 33.53 0 014.147-4.866c1.435-1.406 2.991-2.648 4.872-3.388a14.35 14.35 0 013.735-.939c.116-.017.286.101.368.21 1.307 1.713 2.598 3.429 3.893 5.149.388.511.772 1.033 1.172 1.539.12.152.135.282.059.467zm.774-2.396c-1.291-1.715-2.551-3.384-3.814-5.06.002-.038.013-.083.018-.124 1.471.178 2.944.361 4.433.542-.028 1.626-.265 3.115-.637 4.642z" class="Vector_79"/>
                </g>
              </g>
            </g>
          </g>
          <g class="Group_312">
            <g class="Group_313">
              <g class="Group_314">
                <g class="Group_315">
                  <path fill="#fff" d="M114.383 175.467c-.401-.506-.784-1.028-1.172-1.539a992.92 992.92 0 00-3.893-5.149c-.082-.109-.252-.227-.368-.21a14.35 14.35 0 00-3.735.939c-1.881.74-3.437 1.982-4.872 3.388a33.53 33.53 0 00-4.147 4.866c-1.237 1.769-2.416 3.578-3.605 5.377-.072.1-.125.305-.073.386.31.454.653.884 1.01 1.356 1.037-.807 2.028-1.579 3.027-2.353 1.34-1.043 2.678-2.082 4.021-3.119.481-.367 1.03-.372 1.447-.027.598.493.57 1.347-.075 1.842-2.232 1.741-4.473 3.472-6.704 5.209-.108.083-.215.164-.314.245.027.07.034.106.053.128.288.388.594.767.867 1.16.126.177.243.188.434.132 3.909-1.191 7.732-2.599 11.3-4.641 1.315-.753 2.565-1.601 3.666-2.657 1.427-1.377 2.429-3.04 3.192-4.865.075-.185.06-.315-.059-.468zm-3.915 2.618c-1.705 1.303-4.118.984-5.399-.721-1.289-1.703-.964-4.149.725-5.47 1.659-1.296 4.073-.961 5.366.743 1.279 1.694.967 4.176-.692 5.448z" class="Vector_80"/>
                </g>
              </g>
            </g>
          </g>
          <g class="Group_316">
            <g class="Group_317">
              <g class="Group_318">
                <g class="Group_319">
                  <path fill="#3949AB" d="M115.214 173.538c-1.292-1.713-2.553-3.383-3.814-5.059.004-.04.012-.081.018-.124 1.47.18 2.945.362 4.435.543-.029 1.623-.268 3.114-.639 4.64z" class="Vector_81"/>
                </g>
              </g>
            </g>
          </g>
          <g class="Group_320">
            <g class="Group_321">
              <g class="Group_322">
                <g class="Group_323">
                  <path fill="#3949AB" d="M96.033 174.126l-4.452 6.148c-1.68-.557-3.418-1.13-5.204-1.719 1.848-1.991 3.8-3.728 6.43-4.46 1.136-.318 2.448-.29 3.226.031z" class="Vector_82"/>
                </g>
              </g>
            </g>
          </g>
          <g class="Group_324">
            <g class="Group_325">
              <g class="Group_326">
                <g class="Group_327">
                  <path fill="#3949AB" d="M103.441 192.518c-1.245 1.231-2.693 2.151-4.263 2.986-.095-1.952-.19-3.863-.285-5.736 2.371-.934 4.688-1.846 7.021-2.767.09.653-.023 1.341-.227 2.015-.426 1.38-1.24 2.502-2.246 3.502z" class="Vector_83"/>
                </g>
              </g>
            </g>
          </g>
          <g class="Group_328">
            <g class="Group_329">
              <g class="Group_330">
                <g class="Group_331">
                  <path fill="#00227B" d="M111.159 172.637c-1.292-1.704-3.707-2.038-5.366-.743-1.689 1.322-2.015 3.767-.725 5.47 1.281 1.705 3.694 2.024 5.399.721 1.659-1.272 1.971-3.754.692-5.448zm-1.841 4.01c-.864.663-2.133.488-2.806-.387-.696-.902-.506-2.228.415-2.922.863-.656 2.157-.466 2.806.414a2.081 2.081 0 01-.415 2.895z" class="Vector_84"/>
                </g>
              </g>
            </g>
          </g>
          <g class="Group_332">
            <g class="Group_333">
              <g class="Group_334">
                <g class="Group_335">
                  <path fill="#22A7F0" d="M109.317 176.647c-.864.663-2.133.488-2.808-.389-.693-.9-.505-2.226.416-2.92.865-.654 2.157-.467 2.806.412a2.081 2.081 0 01-.414 2.897z" class="Vector_85"/>
                </g>
              </g>
            </g>
          </g>
        </g>
      </g>
      <g class="Group_336">
        <g class="Group_337">
          <g class="Group_338">
            <g class="Group_339">
              <path fill="#fff" d="M166.442 150.386s-8.191-3.942-15.882-.406c-7.366 3.386-12.577 27.493-3.034 33.599 5.89 3.77 9.899.44 13.231 1.418 4.943 1.449 15.083-23.372 5.685-34.611z" class="Vector_86"/>
            </g>
          </g>
        </g>
      </g>
      <g class="Group_340" opacity=".35">
        <path fill="#00227B" d="M170.137 166.074c-.97 10.104-6.23 19.846-9.378 18.923-3.334-.977-7.343 2.353-13.232-1.416-4.559-2.919-5.75-9.942-4.946-16.857.542 4.034 2.078 7.491 4.946 9.326 5.889 3.765 9.811 2.016 13.232 1.416 4.228-.742 7.676-5.427 9.378-11.392z" class="Vector_87"/>
      </g>
      <g class="Group_341">
        <g class="Group_342">
          <g class="Group_343">
            <g class="Group_344">
              <path fill="#00227B" d="M153.565 186.961c-1.987 0-4.287-.44-6.849-2.08-2.294-1.468-3.951-3.844-4.924-7.061-.817-2.699-1.123-5.989-.884-9.513.283-4.173 1.295-8.455 2.848-12.056 1.188-2.75 3.223-6.315 6.176-7.672 8.238-3.787 16.799.243 17.159.417l.295.142.211.253c4.301 5.143 4.55 12.249 4 17.304-.618 5.695-2.601 11.737-5.173 15.767-2.577 4.037-4.734 4.41-6.09 4.013-.88-.258-1.991-.078-3.279.131-1.017.166-2.186.355-3.49.355zm4.006-36.919c-2.306 0-4.443.447-6.385 1.34-1.596.734-3.292 2.959-4.648 6.104-1.398 3.237-2.346 7.259-2.602 11.034-.452 6.665 1.151 11.681 4.399 13.76 3.275 2.095 5.801 1.685 8.242 1.288 1.579-.256 3.07-.498 4.602-.049.176.032 1.438-.462 3.219-3.59 4.152-7.294 6.785-21.069 1.104-28.28-.643-.272-2.3-.91-4.468-1.293a20.061 20.061 0 00-3.463-.314z" class="Vector_88"/>
            </g>
          </g>
        </g>
      </g>
    </g>
    <g class="Group_345">
      <g class="Group_346">
        <g class="Group_347">
          <g class="Group_348">
            <g class="Group_349">
              <path fill="#FF0068" d="M189.347 62.635a20.194 20.194 0 01-5.447-11.64c-1.292-11.061 6.503-21.091 17.411-22.4 10.908-1.31 20.798 6.594 22.09 17.657 1.292 11.062-6.504 21.092-17.412 22.401a19.546 19.546 0 01-8.701-.917l-8.531 4.081.59-9.182z" class="Vector_89"/>
            </g>
          </g>
        </g>
      </g>
      <g class="Group_350" opacity=".5">
        <path fill="#fff" d="M201.761 32.446c-10.189 1.224-17.661 10.057-17.548 20.232-.156-.693-.28-1.4-.365-2.122-1.292-11.062 6.503-21.092 17.411-22.402 10.908-1.31 20.798 6.596 22.09 17.658.085.726.128 1.445.137 2.16-2.23-9.926-11.532-16.75-21.725-15.526z" class="Vector_90" opacity=".5"/>
      </g>
      <g class="Group_351">
        <g class="Group_352">
          <g class="Group_353">
            <g class="Group_354">
              <path fill="#00227B" d="M188.757 73.297c-.289 0-.576-.086-.822-.256a1.49 1.49 0 01-.635-1.32l.549-8.542c-3.007-3.348-4.87-7.486-5.399-12.01-.67-5.743.904-11.406 4.434-15.948 3.53-4.541 8.592-7.418 14.255-8.097 5.663-.68 11.247.916 15.725 4.496 4.478 3.58 7.314 8.714 7.985 14.457.67 5.743-.904 11.406-4.434 15.947-3.53 4.542-8.592 7.418-14.255 8.098-2.981.357-5.93.088-8.773-.8l-8.008 3.832c-.198.097-.41.143-.622.143zm14.906-43.364c-.72 0-1.447.043-2.18.13-4.889.588-9.259 3.07-12.307 6.991-3.047 3.92-4.407 8.81-3.827 13.768.477 4.094 2.223 7.824 5.046 10.784.286.3.435.708.407 1.125l-.429 6.677 6.291-3.01a1.442 1.442 0 011.09-.063 18.017 18.017 0 008.063.85c10.092-1.212 17.329-10.525 16.134-20.758-1.108-9.492-9.086-16.494-18.288-16.494z" class="Vector_91"/>
            </g>
          </g>
        </g>
      </g>
      <g class="Group_355" opacity=".3">
        <path fill="#00227B" d="M189.196 62.47c6.322 3.354 14.087 3.689 20.954.202 7.616-3.866 12.184-11.444 12.653-19.488.273.99.475 2.014.597 3.068 1.292 11.062-6.503 21.092-17.411 22.402a19.549 19.549 0 01-8.702-.918l-8.531 4.081.591-9.182c-.052-.054-.1-.11-.151-.164z" class="Vector_92" opacity=".3"/>
      </g>
      <g class="Group_356">
        <g class="Group_357">
          <g class="Group_358">
            <g class="Group_359">
              <path fill="#fff" d="M197.36 42.96c1.721-1.746 4.512-1.433 6.233.312l.268.272.267-.272c1.721-1.745 4.512-2.058 6.234-.313a4.515 4.515 0 010 6.322l-.268.271-5.411 5.488c-.454.46-1.189.46-1.644 0l-5.411-5.488-.267-.271a4.514 4.514 0 01-.001-6.322z" class="Vector_93"/>
            </g>
          </g>
        </g>
      </g>
    </g>
  </g>
</svg>
